<?xml version="1.0" encoding="UTF-8"?>
<svg version="1.1" xmlns="http://www.w3.org/2000/svg" width="300" height="160" viewBox="0 0 1748 925">
<path d="M0 0 C0.72348633 0.16628906 1.44697266 0.33257812 2.19238281 0.50390625 C17.83151605 4.26901189 32.51973611 10.76133691 45 21 C45.77601563 21.60199219 46.55203125 22.20398438 47.3515625 22.82421875 C58.84349213 32.24286211 67.21383347 46.14475364 69 61 C70.15533037 80.29807089 67.96013649 95.14707472 55.5 110.5625 C46.56325125 120.16060208 34.32380713 126.01702051 22 130 C21.01 130 20.02 130 19 130 C19.89690948 132.36888173 19.89690948 132.36888173 23.125 133.125 C34.31112576 135.65089937 43.64796684 131.25802534 53.30078125 125.75 C62.09723403 120.04694523 67.92509768 113.09140255 73 104 C73.39960938 103.32195312 73.79921875 102.64390625 74.2109375 101.9453125 C81.77034129 88.24744549 82.1878939 69.65324449 79 54.5625 C74.86807495 41.31717016 67.75226103 29.43147781 57.734375 19.828125 C56 18 56 18 56 16 C68.25788283 21.14889589 77.44736516 34.87343501 82.9375 46.359375 C90.12112323 64.21279155 89.67771525 84.45366303 82.8125 102.3125 C74.8161366 119.87594105 59.68300171 131.97046105 42 139 C45.31761677 141.55263232 48.77225856 143.8593911 52.25 146.1875 C69.26907217 157.86226984 79.56604456 174.82023588 83.3984375 195.109375 C85.8569898 211.7212149 83.13158102 230.44377754 73.5625 244.4375 C72.39281958 245.97208072 71.2066938 247.49435052 70 249 C69.55140625 249.61101562 69.1028125 250.22203125 68.640625 250.8515625 C55.91427235 267.24609915 34.38499084 274.71159221 14.5592041 277.37588501 C0.76300601 278.90481788 -13.28371838 278.37202812 -27.14424992 278.30418181 C-31.68719673 278.28520166 -36.23015197 278.28364801 -40.77313232 278.28010559 C-49.3431865 278.27084692 -57.91312344 278.24631848 -66.4831264 278.21605712 C-76.25364161 278.18231862 -86.02416295 278.16597862 -95.79472208 278.15097082 C-115.86321304 278.11976208 -135.93159908 278.06712425 -156 278 C-155.0573613 276.88001805 -154.11180415 275.76249203 -153.16503906 274.64599609 C-152.37567963 273.71211563 -152.37567963 273.71211563 -151.57037354 272.7593689 C-149.49421123 270.43333926 -147.20416359 268.54277454 -144.75 266.625 C-139.96890316 262.82497639 -135.4541319 258.82506746 -130.99609375 254.65234375 C-129 253 -129 253 -127 253 C-127 222.31 -127 191.62 -127 160 C-141.355 160.99 -141.355 160.99 -156 162 C-156.66 159.69 -157.32 157.38 -158 155 C-147.57904782 153.46629876 -137.53922138 152.72743393 -127 153 C-127 149.7 -127 146.4 -127 143 C-144.325 143.495 -144.325 143.495 -162 144 C-160.09362405 138.28087215 -158.50377148 133.64062487 -155.8125 128.4375 C-155.01779297 126.88869141 -155.01779297 126.88869141 -154.20703125 125.30859375 C-153.80871094 124.54675781 -153.41039062 123.78492188 -153 123 C-150.35409469 122.97265999 -147.70848066 122.95299947 -145.0625 122.9375 C-144.32708984 122.92912109 -143.59167969 122.92074219 -142.83398438 122.91210938 C-142.09599609 122.90888672 -141.35800781 122.90566406 -140.59765625 122.90234375 C-139.93258057 122.89710693 -139.26750488 122.89187012 -138.58227539 122.88647461 C-134.70745826 123.05682442 -130.8548376 123.57168471 -127 124 C-127.33 97.6 -127.66 71.2 -128 44 C-135.26 40.04 -142.52 36.08 -150 32 C-150.33 31.34 -150.66 30.68 -151 30 C-134.37926409 20.63434723 -118.13309777 12.07427002 -100 6 C-99.28924316 5.76007324 -98.57848633 5.52014648 -97.84619141 5.27294922 C-67.74205309 -4.62963472 -31.06805591 -7.18369249 0 0 Z M-83 28 C-83 59.68 -83 91.36 -83 124 C-79.7 124 -76.4 124 -73 124 C-73 94.96 -73 65.92 -73 36 C-69.7 35.01 -66.4 34.02 -63 33 C-61.78957031 32.61457031 -60.57914063 32.22914063 -59.33203125 31.83203125 C-42.57078394 26.97666438 -21.88820141 26.11017735 -6.0625 34.375 C0.2420315 38.05995479 4.74766904 42.48953086 8.75 48.5 C9.13542969 49.05558594 9.52085937 49.61117187 9.91796875 50.18359375 C12.0636754 53.3390447 13.73685745 56.39869995 15 60 C12.125 59.25 12.125 59.25 9 58 C8.28383671 56.69258562 7.62220851 55.3546508 7 54 C-0.98111229 43.00329699 -12.25874506 36.46437424 -25.4375 33.75 C-38.03770535 31.76236197 -49.64410221 33.07976386 -61 39 C-61.85671799 39.35536331 -62.71343597 39.71072662 -63.59611511 40.07685852 C-66.37130908 41.86149414 -66.37130908 41.86149414 -66.60127258 45.47380066 C-66.61577687 46.9384782 -66.60244749 48.40358451 -66.56762695 49.86791992 C-66.56835709 50.66815079 -66.56908722 51.46838165 -66.56983948 52.29286194 C-66.56635437 54.93941913 -66.52745184 57.58421888 -66.48828125 60.23046875 C-66.47895635 62.06463153 -66.47183872 63.89880677 -66.46684265 65.73298645 C-66.44774729 70.56169998 -66.3986248 75.38966209 -66.34332275 80.21807861 C-66.29218487 85.14463128 -66.2693403 90.07130532 -66.24414062 94.99804688 C-66.19050839 104.66569483 -66.105165 114.33278494 -66 124 C-62.05471024 124.03496543 -58.10946124 124.05574856 -54.1640625 124.07421875 C-52.5090271 124.08914368 -52.5090271 124.08914368 -50.82055664 124.10437012 C-29.47874375 124.17904681 -5.86839772 120.42419803 10.3125 105.375 C21.50717913 93.52181034 23.61123542 80.04115396 23.24609375 64.41015625 C22.61467848 49.71168839 16.38780502 38.42331528 5.85546875 28.4453125 C-19.40716622 6.81137339 -56.28508858 12.73433633 -83 28 Z M-83 143 C-83 181.61 -83 220.22 -83 260 C-79.7 260 -76.4 260 -73 260 C-73 225.35 -73 190.7 -73 155 C-0.13232514 155 -0.13232514 155 16.0859375 171.06640625 C20.65157626 175.94603875 24.05486842 181.01062184 27 187 C23.74396181 185.60859106 22.00575442 184.06896049 19.8125 181.3125 C6.35504524 165.54070588 -11.70765708 162.17902844 -31.40039062 160.56445312 C-43.11887289 159.69727009 -54.25667369 159.93242488 -66 161 C-66 193.67 -66 226.34 -66 260 C-21.59370541 261.71366192 -21.59370541 261.71366192 16.95703125 242.23828125 C17.63121094 241.49964844 18.30539062 240.76101563 19 240 C19.58136719 239.37480469 20.16273438 238.74960937 20.76171875 238.10546875 C30.81700457 226.07458521 32.50682867 209.47570531 31.875 194.375 C30.58862198 180.4614171 27.12552089 167.5953665 16.8125 157.6875 C-2.80337994 141.46604854 -33.30943275 141.80725795 -57.51416016 141.86962891 C-60.02382275 141.87505147 -62.53331112 141.86961754 -65.04296875 141.86328125 C-66.65364622 141.8639411 -68.26432359 141.86522033 -69.875 141.8671875 C-70.6177417 141.86516327 -71.3604834 141.86313904 -72.12573242 141.86105347 C-75.96699403 141.87838988 -79.19098861 142.23819772 -83 143 Z " fill="#FFFFFF" transform="translate(429,259)"/>
<path d="M0 0 C0.76213806 0.00182281 1.52427612 0.00364563 2.30950928 0.00552368 C14.32038551 0.05372545 26.00703776 0.57669407 37.75 3.3125 C38.47203613 3.47878906 39.19407227 3.64507812 39.93798828 3.81640625 C62.0159376 9.13046581 84.62307643 20.35855999 97.5 39.6875 C106.07420446 53.78208268 107.8313316 68.96242999 105.1015625 85.16015625 C99.97459885 103.19216942 86.61932786 118.60820726 70.75 128.3125 C59.29426884 134.65674391 47.3127299 139.64595825 34.75 143.3125 C51.56763044 184.41707267 72.04753698 223.89316547 101.75 257.3125 C102.19553223 257.81974609 102.64106445 258.32699219 103.10009766 258.84960938 C108.74167552 265.25652544 114.60678668 271.227616 121.04272461 276.83642578 C122.31286389 277.95732317 123.53637531 279.13064559 124.75 280.3125 C124.75 280.9725 124.75 281.6325 124.75 282.3125 C122.91115234 282.96992187 122.91115234 282.96992187 121.03515625 283.640625 C101.42488295 290.79689834 82.5637142 299.41130964 64.94116211 310.65527344 C63.80046265 311.37505371 63.80046265 311.37505371 62.63671875 312.109375 C61.97889404 312.53573242 61.32106934 312.96208984 60.64331055 313.40136719 C58.75 314.3125 58.75 314.3125 54.75 314.3125 C54.57460693 313.3237085 54.39921387 312.33491699 54.21850586 311.31616211 C50.27747091 289.17775489 46.07118198 267.16681066 40.75 245.3125 C40.48783691 244.23242676 40.22567383 243.15235352 39.95556641 242.03955078 C36.4986378 228.02784201 32.23441838 214.31397869 27.6875 200.625 C27.43787506 199.87127106 27.18825012 199.11754211 26.93106079 198.3409729 C23.87485588 189.15049671 20.5666078 180.12703454 16.85375977 171.18041992 C15.75 168.3125 15.75 168.3125 15.75 166.3125 C15.18716309 166.50884033 14.62432617 166.70518066 14.04443359 166.9074707 C-13.39010003 176.42038266 -13.39010003 176.42038266 -25.25 176.3125 C-25.28153281 186.73570001 -25.27533021 197.15813912 -25.22153378 207.58126831 C-25.1977241 212.42174574 -25.18669978 217.26153586 -25.20532227 222.10205078 C-25.22283183 226.7774076 -25.20619779 231.45153236 -25.16632271 236.1267395 C-25.15705985 237.90640135 -25.15990482 239.68617049 -25.17530632 241.46578979 C-25.61741636 252.59267287 -25.61741636 252.59267287 -20.91235352 262.25 C-19.72373725 263.30811478 -18.50307892 264.33157761 -17.25 265.3125 C-16.07219112 266.46791701 -14.90402429 267.63332649 -13.75 268.8125 C-13.17121094 269.38097656 -12.59242187 269.94945312 -11.99609375 270.53515625 C-10.18522357 272.37843574 -8.49678646 274.29072799 -6.8125 276.25 C-4.39382221 279.05826347 -1.89100317 281.71220593 0.75 284.3125 C4.61804922 288.12766573 8.35857774 292.06262398 11.75 296.3125 C11.75 296.6425 11.75 296.9725 11.75 297.3125 C-25.21 297.3125 -62.17 297.3125 -100.25 297.3125 C-101.24 295.3325 -102.23 293.3525 -103.25 291.3125 C-69.92 290.9825 -36.59 290.6525 -2.25 290.3125 C-6.87 285.6925 -11.49 281.0725 -16.25 276.3125 C-20.0625 272 -20.0625 272 -21.60426331 270.10374451 C-23.23375031 268.20928867 -23.23375031 268.20928867 -25.49913025 266.69129944 C-29.71920853 263.42961008 -32.34414572 260.46430044 -33.04202271 255.10641479 C-33.40946669 249.79811445 -33.26299639 244.49834222 -33.12890625 239.18359375 C-33.11210001 237.22350498 -33.09929836 235.26337816 -33.09031677 233.30323792 C-33.05611046 228.1680994 -32.96784449 223.03528732 -32.86798096 217.90106201 C-32.77556848 212.6524604 -32.7347356 207.40347923 -32.68945312 202.15429688 C-32.59320919 191.87268111 -32.43980091 181.59278472 -32.25 171.3125 C-31.00540764 171.10739555 -31.00540764 171.10739555 -29.735672 170.89814758 C-26.61341279 170.38058029 -23.49214421 169.85746778 -20.37141418 169.33076477 C-19.02886169 169.10530338 -17.68595151 168.88195994 -16.34266663 168.66090393 C-6.58489553 167.0531294 2.57690619 165.03560371 11.75 161.3125 C10.76 155.8675 10.76 155.8675 9.75 150.3125 C8.20054687 150.63863281 6.65109375 150.96476563 5.0546875 151.30078125 C-5.73787526 153.53700094 -16.51299951 155.64005293 -27.4375 157.125 C-28.33807129 157.2485083 -29.23864258 157.3720166 -30.16650391 157.49926758 C-34.57486989 158.07140649 -38.79859492 158.33159739 -43.25 158.3125 C-43.35120308 170.65685364 -43.39820918 183.00012992 -43.37697029 195.34491539 C-43.36878959 201.07793325 -43.37892869 206.80967344 -43.43164062 212.54248047 C-43.48187435 218.08034044 -43.48306316 223.61628181 -43.45095444 229.15425491 C-43.44721744 231.26167574 -43.4608369 233.36920453 -43.49249649 235.47639084 C-44.1450771 247.18716538 -44.1450771 247.18716538 -40.07562256 257.74493408 C-37.59528189 260.23413331 -35.08387522 262.24784064 -32.25 264.3125 C-30.96192062 265.69463456 -29.70377223 267.10634861 -28.5 268.5625 C-26.36870641 271.06335281 -24.17692003 273.405752 -21.8125 275.6875 C-19.25 278.3125 -19.25 278.3125 -19.25 280.3125 C-50.6 280.3125 -81.95 280.3125 -114.25 280.3125 C-110.23773048 275.63151889 -106.40340881 271.40338139 -101.875 267.3125 C-101.3490625 266.83039063 -100.823125 266.34828125 -100.28125 265.8515625 C-99.74757813 265.36429688 -99.21390625 264.87703125 -98.6640625 264.375 C-98.15299957 263.89418472 -97.64193665 263.41336945 -97.11538696 262.91798401 C-95.25 261.3125 -95.25 261.3125 -93.20175171 260.05992126 C-89.35105159 257.47452144 -87.51116249 255.51456637 -86.50942993 250.90383911 C-86.1236549 246.56568151 -86.19277096 242.22944218 -86.25 237.87890625 C-86.24247471 236.27463315 -86.23143477 234.67037303 -86.21704102 233.06614685 C-86.18869559 228.86202955 -86.2078372 224.65944147 -86.23712158 220.4553833 C-86.25856783 216.15830675 -86.23475905 211.86150183 -86.21484375 207.56445312 C-86.18245759 199.14674817 -86.20027337 190.73011863 -86.25 182.3125 C-86.9613208 182.5297876 -87.6726416 182.7470752 -88.40551758 182.97094727 C-91.62185909 183.94796059 -94.8420507 184.91161773 -98.0625 185.875 C-99.18205078 186.21724609 -100.30160156 186.55949219 -101.45507812 186.91210938 C-102.52822266 187.23115234 -103.60136719 187.55019531 -104.70703125 187.87890625 C-106.1916687 188.32665405 -106.1916687 188.32665405 -107.70629883 188.78344727 C-110.25 189.3125 -110.25 189.3125 -113.25 188.3125 C-113.9375 186.25 -113.9375 186.25 -114.25 184.3125 C-105.30801913 180.08864974 -95.87394084 178.28341599 -86.25 176.3125 C-86.25 173.0125 -86.25 169.7125 -86.25 166.3125 C-97.57150592 167.37739412 -108.29057427 169.27395128 -119.25 172.3125 C-120.43331646 168.76255061 -119.98450243 167.7309926 -118.8515625 164.2421875 C-118.53703125 163.26378906 -118.2225 162.28539062 -117.8984375 161.27734375 C-117.39183594 159.74787109 -117.39183594 159.74787109 -116.875 158.1875 C-116.545 157.16011719 -116.215 156.13273438 -115.875 155.07421875 C-113.40213735 147.46463735 -113.40213735 147.46463735 -112.25 146.3125 C-103.67 146.3125 -95.09 146.3125 -86.25 146.3125 C-86.25 111.3325 -86.25 76.3525 -86.25 40.3125 C-88.23 39.6525 -90.21 38.9925 -92.25 38.3125 C-93.62704086 37.69669408 -94.99116573 37.05059611 -96.3359375 36.3671875 C-97.03847656 36.01269531 -97.74101563 35.65820312 -98.46484375 35.29296875 C-99.17769531 34.92816406 -99.89054688 34.56335938 -100.625 34.1875 C-101.36105469 33.81496094 -102.09710937 33.44242187 -102.85546875 33.05859375 C-104.65550358 32.1468878 -106.45301402 31.23020068 -108.25 30.3125 C-105.26511366 27.11581573 -101.82810198 25.39443446 -97.9375 23.5 C-97.22255371 23.1488916 -96.50760742 22.7977832 -95.77099609 22.43603516 C-79.3998972 14.46985481 -62.94423118 8.31769936 -45.125 4.5625 C-44.18479004 4.36390381 -43.24458008 4.16530762 -42.27587891 3.96069336 C-28.17641198 1.13668793 -14.3541072 -0.07179611 0 0 Z M-43.25 24.3125 C-43.25 62.2625 -43.25 100.2125 -43.25 139.3125 C-39.95 139.3125 -36.65 139.3125 -33.25 139.3125 C-31.71101511 137.77351511 -32.1096793 136.35120525 -32.09178162 134.20603943 C-32.07709839 132.87874817 -32.07709839 132.87874817 -32.06211853 131.52464294 C-32.05636307 130.54641068 -32.0506076 129.56817841 -32.04467773 128.56030273 C-32.03477814 127.5360318 -32.02487854 126.51176086 -32.01467896 125.45645142 C-31.98295829 122.0530228 -31.95826493 118.64958019 -31.93359375 115.24609375 C-31.91303334 112.89339321 -31.89203712 110.54069644 -31.87062073 108.18800354 C-31.81530576 101.98197474 -31.76593819 95.77591208 -31.71777344 89.56982422 C-31.66762705 83.24248221 -31.61190525 76.91518963 -31.55664062 70.58789062 C-31.44894385 58.1628026 -31.34752463 45.73767174 -31.25 33.3125 C-29.68684559 32.98614012 -28.12287925 32.66366806 -26.55859375 32.34277344 C-25.68775146 32.16276794 -24.81690918 31.98276245 -23.91967773 31.79730225 C-3.97340815 28.1751436 20.95156158 29.09442003 38.25 40.6875 C44.0207282 45.10436351 49.38136748 49.77338981 52.75 56.3125 C51.4375 55.4375 50.125 54.5625 48.8125 53.6875 C47.9875 53.13964844 47.1625 52.59179688 46.3125 52.02734375 C44.70014055 50.94834101 43.09482791 49.85865683 41.5 48.75390625 C27.65066991 39.23249181 13.85546491 35.13786817 -2.9375 35.125 C-3.75927734 35.11275391 -4.58105469 35.10050781 -5.42773438 35.08789062 C-12.41075414 35.07166362 -18.12588997 36.12514833 -25.25 37.3125 C-25.25 70.6425 -25.25 103.9725 -25.25 138.3125 C-16.66822817 136.99222741 -8.74315614 135.62219904 -0.5 133.1875 C0.53205566 132.88328125 1.56411133 132.5790625 2.62744141 132.265625 C15.75181705 128.25681369 27.93643135 122.8775005 38.75 114.3125 C39.38035156 113.84457031 40.01070312 113.37664062 40.66015625 112.89453125 C50.97977867 104.79759673 57.20642401 92.39719647 59.16015625 79.6328125 C60.8404413 65.07034207 57.98884131 51.00040646 49.1875 39.125 C37.88038963 25.93337123 21.97992401 17.97099536 4.75 16.3125 C-12.8998603 15.14141922 -26.75947938 17.44144974 -43.25 24.3125 Z " fill="#FFFFFF" transform="translate(1065.25,256.6875)"/>
<path d="M0 0 C11.25094439 -0.04690286 22.5018645 -0.08215709 33.75288773 -0.10362434 C38.98047658 -0.11394158 44.20799725 -0.12787197 49.43554688 -0.15087891 C149.12396551 -0.57754394 149.12396551 -0.57754394 180 27 C180.76699219 27.63679688 181.53398438 28.27359375 182.32421875 28.9296875 C207.43670564 50.16231648 218.32112617 84.18981553 221 116 C221.34774684 122.34993388 221.34080493 128.7049794 221.3125 135.0625 C221.31067719 135.91583923 221.30885437 136.76917847 221.30697632 137.64837646 C221.25808932 151.2822766 220.63805882 164.58836631 218 178 C217.74259033 179.3310376 217.74259033 179.3310376 217.47998047 180.68896484 C212.76356882 204.24573403 204.11835528 224.96064894 188 243 C187.46246094 243.62003906 186.92492188 244.24007812 186.37109375 244.87890625 C164.33567512 268.6815765 131.4886814 275.40026708 100.51884651 276.90639114 C91.50923224 277.24121888 82.48283366 277.11909939 73.46875 277.09765625 C71.13749217 277.09578701 68.80623395 277.0943655 66.47497559 277.09336853 C60.39242433 277.08958314 54.30989763 277.07978767 48.22735596 277.06866455 C41.99923027 277.05836406 35.77110054 277.05385255 29.54296875 277.04882812 C17.36196848 277.03816113 5.1809863 277.02113357 -7 277 C-1.53019259 271.49538638 -1.53019259 271.49538638 1.234375 269.3515625 C2.09675781 268.67867187 2.09675781 268.67867187 2.9765625 267.9921875 C3.56179688 267.54101562 4.14703125 267.08984375 4.75 266.625 C5.31976562 266.1815625 5.88953125 265.738125 6.4765625 265.28125 C7.05664062 264.83007812 7.63671875 264.37890625 8.234375 263.9140625 C8.79575165 263.45302911 9.3571283 262.99199572 9.93551636 262.51699162 C12 261 12 261 14.29666138 259.94668484 C17.38379235 258.28670316 18.97625248 256.89398679 21 254 C22.83070483 247.03158703 22.2081811 239.44931917 22.1328125 232.31079102 C22.14173646 230.06659159 22.15451907 227.82240469 22.17086792 225.57824707 C22.20334563 219.48897851 22.17922373 213.40113327 22.14306641 207.3119328 C22.11282425 200.93750933 22.12810311 194.56317249 22.13671875 188.18870544 C22.14394204 177.48285585 22.11479036 166.77770968 22.06347656 156.07202148 C22.01073254 145.06723611 21.99654652 134.06323243 22.02246094 123.05834961 C22.0536713 109.78409951 22.04937688 96.51040978 22.0145874 83.23612785 C22.00196474 78.17124239 22.00306541 73.10663484 22.01519775 68.04174995 C22.02764437 62.07497857 22.005353 56.10931199 21.9563942 50.14273834 C21.9439573 47.95466268 21.94336508 45.76648239 21.95556259 43.57840538 C21.97024418 40.58726552 21.94170252 37.59950597 21.90234375 34.60865784 C21.91659456 33.74570825 21.93084538 32.88275866 21.94552803 31.99365908 C21.80128675 26.00340865 20.0087929 23.02029537 15.84132385 18.7539925 C15.23368698 18.17517497 14.62605011 17.59635745 14 17 C12.83292981 15.83373699 11.66620325 14.6671299 10.5 13.5 C9.93152344 12.93925781 9.36304688 12.37851562 8.77734375 11.80078125 C0 2.90769231 0 2.90769231 0 0 Z M65 19 C65 98.2 65 177.4 65 259 C68.63 259 72.26 259 76 259 C76.33 184.42 76.66 109.84 77 33 C97.09346028 30.7673933 119.35203663 29.43018716 137 41 C138.70848748 42.6237691 140.38657955 44.28173634 142 46 C141.09121094 45.67386719 140.18242188 45.34773438 139.24609375 45.01171875 C127.08655058 40.74050751 115.13338394 37.99885624 102.25 37.25 C101.49428711 37.20520508 100.73857422 37.16041016 99.95996094 37.11425781 C93.78236029 36.8442718 88.29758518 37.42749226 82 38 C82 110.93 82 183.86 82 259 C106.6171358 259 123.86737818 257.53519999 141.96875 241.0859375 C159.98950306 222.58001032 167.02898115 197.86354178 171 173 C171.17789062 171.88794189 171.17789062 171.88794189 171.359375 170.75341797 C175.12819942 145.54379632 174.52482215 118.02304662 170 93 C169.79117187 91.8253418 169.79117187 91.8253418 169.578125 90.62695312 C165.81938551 70.42372839 157.48223022 52.74223436 143 38 C142.15501953 37.13568359 142.15501953 37.13568359 141.29296875 36.25390625 C129.83371765 25.51957128 113.08768943 21.98247648 98 20 C97.20207031 19.88785156 96.40414063 19.77570313 95.58203125 19.66015625 C85.39897897 18.47833937 75.29015756 19 65 19 Z " fill="#FFFFFF" transform="translate(1233,260)"/>
<path d="M0 0 C85.47 0 170.94 0 259 0 C254.41375534 9.17248933 249.86974856 18.20013558 244.875 27.125 C237.95767006 39.66934713 232.64876928 52.46508766 228 66 C226.68 66 225.36 66 224 66 C223.72905518 65.12432373 223.72905518 65.12432373 223.45263672 64.23095703 C218.70498053 48.94501714 218.70498053 48.94501714 211 35 C210.69707031 34.30003906 210.39414062 33.60007812 210.08203125 32.87890625 C208.69634959 30.47272257 207.54019966 30.06955775 205 29 C204.12085938 28.525625 203.24171875 28.05125 202.3359375 27.5625 C200.87027344 26.7890625 200.87027344 26.7890625 199.375 26 C198.41335938 25.484375 197.45171875 24.96875 196.4609375 24.4375 C181.74832889 18.32661968 165.53126848 21 150 21 C150 97.89 150 174.78 150 254 C151.32 254.66 152.64 255.32 154 256 C155.46147681 257.3488442 156.8749648 258.75063768 158.25 260.1875 C161.74207599 263.77162412 165.32677092 267.1014702 169.17578125 270.296875 C171 272 171 272 175 277 C142.33 277 109.66 277 76 277 C79.46701371 272.83958354 81.92702508 270.02245127 86 266.8125 C86.90307546 266.06961133 87.80615091 265.32672266 88.73659229 264.56132221 C90.90131172 262.81072784 93.00455446 261.3614941 95.37457561 259.85508251 C99.71244487 256.97242272 103.95370646 253.96325151 105.744488 248.89150453 C106.94974803 242.71885019 106.69119782 236.45669857 106.56762695 230.19848633 C106.57382989 228.09834451 106.5857531 225.99821301 106.60293579 223.89813232 C106.63328557 218.22215034 106.5840236 212.54936725 106.52005029 206.87377 C106.46676548 200.93336728 106.48725942 194.99322081 106.49980164 189.05265808 C106.51238163 177.81499544 106.45897187 166.57866214 106.38163012 155.34129781 C106.29677614 142.54321233 106.28582441 129.74539379 106.28096449 116.9470669 C106.26932174 90.63085567 106.16524822 64.31566344 106 38 C101.91592173 38.08217187 97.83319912 38.19488611 93.75 38.3125 C92.04070312 38.34633789 92.04070312 38.34633789 90.296875 38.38085938 C79.82860064 38.70799295 68.14473524 39.69342544 60 47 C52.50897142 55.61724245 50.77015039 66.04589286 49 77 C47.02 77 45.04 77 43 77 C42.00028218 64.75345664 46.45088449 51.59894818 54.3125 42.25 C66.45639583 32.08301744 79.64830513 30.81261137 95 30.9375 C96.59134766 30.94426758 96.59134766 30.94426758 98.21484375 30.95117188 C100.80995598 30.96286157 103.40494709 30.97924724 106 31 C106 28.03 106 25.06 106 22 C101.29018051 21.89950324 96.58101385 21.8277838 91.87036133 21.78027344 C90.27519838 21.76042394 88.68010549 21.73333496 87.08520508 21.69824219 C71.85408749 21.37203243 55.90526001 22.620683 44.234375 33.671875 C35.70901126 43.74730488 34.10060234 57.35128657 33 70 C31.68 70 30.36 70 29 70 C28.75467529 69.30777344 28.50935059 68.61554688 28.2565918 67.90234375 C20.88180648 47.22365687 12.49950185 27.18644724 2.28466797 7.72973633 C0.83305089 4.92458441 0 3.21195089 0 0 Z " fill="#FFFFFF" transform="translate(539,260)"/>
<path d="M0 0 C33.66 0 67.32 0 102 0 C99.81199535 4.37600929 98.37789554 5.34903385 94.43907166 8.05802917 C84.26302934 15.66318652 75.30839814 24.00394518 73.04256791 36.97949117 C71.38464382 50.09313357 71.73051633 63.386796 72.00410962 76.57371545 C72.10953312 82.77519619 72.08187156 88.97633805 72.07298279 95.17851257 C72.07779995 105.57339336 72.17964864 115.96367692 72.3449707 126.35717773 C72.53489667 138.34949035 72.58692278 150.33327129 72.5624004 162.32671195 C72.54039831 173.91657185 72.59827659 185.50457088 72.69825554 197.0939846 C72.74026373 202.00497429 72.75772845 206.91512614 72.75564766 211.82628822 C72.75804414 217.60625361 72.83162665 223.38120165 72.95915794 229.15971756 C72.99506917 231.27171389 73.0077138 233.38426158 72.99466705 235.4965229 C72.66742652 247.53275228 72.66742652 247.53275228 78.02393913 257.81844139 C80.87977633 260.47085352 83.93332088 262.69778636 87.20402992 264.8087858 C90.0885061 266.72197413 92.70194295 268.92815972 95.375 271.125 C96.26960937 271.82882812 97.16421875 272.53265625 98.0859375 273.2578125 C98.71757813 273.83273437 99.34921875 274.40765625 100 275 C100 275.66 100 276.32 100 277 C67 277 34 277 0 277 C0 276.34 0 275.68 0 275 C1.73046875 273.44140625 1.73046875 273.44140625 4.1875 271.5625 C9.04647902 267.77637247 13.75971521 263.8551222 18.4440918 259.85766602 C27.66830842 252 27.66830842 252 30 252 C30.24350456 223.05317132 30.39497256 194.10711479 30.43784332 165.15926266 C30.44212979 162.47979102 30.44675929 159.80032019 30.45166016 157.12084961 C30.45286651 156.45488656 30.45407286 155.7889235 30.45531577 155.10277975 C30.47646106 144.34561982 30.55397277 133.58957692 30.65263933 122.83288055 C30.75275616 111.77996025 30.79035857 100.72807003 30.77444887 89.67470938 C30.76747427 83.47190575 30.78822673 77.27207279 30.87687683 71.06983757 C30.95956536 65.22195121 30.96607315 59.3787488 30.91612434 53.53053856 C30.91094025 51.39363467 30.93273012 49.25645344 30.98466301 47.12017441 C31.35696909 34.4232778 31.35696909 34.4232778 25.59153748 23.5378437 C22.32402354 20.25986407 18.8225781 17.38350349 15.11769009 14.61608517 C12.202274 12.39122671 9.48396791 9.96706609 6.74833345 7.5269503 C5.21525601 6.18799917 3.6121088 4.9301672 2 3.6875 C1.34 3.130625 0.68 2.57375 0 2 C0 1.34 0 0.68 0 0 Z " fill="#FFFFFF" transform="translate(812,260)"/>
<path d="M0 0 C3.87360504 -0.07558065 7.74691006 -0.1292563 11.62109375 -0.16479492 C13.56786238 -0.18685261 15.51442765 -0.22501918 17.4609375 -0.26367188 C27.84343877 -0.34312979 40.86375221 -0.32262301 49 7 C54.60653753 12.81961259 54.60653753 12.81961259 56 17 C53.32664256 15.93065703 50.65390547 14.8601276 47.984375 13.78125 C46.91703125 13.3584375 45.8496875 12.935625 44.75 12.5 C43.69296875 12.0771875 42.6359375 11.654375 41.546875 11.21875 C33.54286311 8.46847279 25.87159714 7.64292632 17.4375 7.375 C16.42880859 7.33632813 15.42011719 7.29765625 14.38085938 7.2578125 C11.9207436 7.16453797 9.46061634 7.07874484 7 7 C6.98086503 34.92148668 7.03025613 62.84213104 7.16055679 90.76333809 C7.21947583 103.72862658 7.25622321 116.69326102 7.24023438 129.65869141 C7.22635034 140.96342902 7.25461816 152.26715382 7.33287215 163.57164276 C7.37282955 169.55408244 7.39210486 175.53493322 7.36084747 181.51745987 C7.33204764 187.15737122 7.35992265 192.79425721 7.42990494 198.43378067 C7.44574558 200.49514387 7.44148223 202.55678321 7.41478348 204.61803436 C7.29052394 215.10448113 7.54241062 222.94154939 14.81536865 230.99484253 C16.35428605 232.56930857 17.92317254 234.09142879 19.53685713 235.58897185 C21.74405532 237.71755331 23.60722624 240.09305261 25.5 242.5 C29.62541082 247.5902859 33.88707365 252.55499638 38.19140625 257.49414062 C42 261.89286804 42 261.89286804 42 263 C27.6138965 263.14021554 13.22789907 263.24559379 -1.15874767 263.31087303 C-7.83893117 263.34220216 -14.51856696 263.38470534 -21.19848633 263.45263672 C-27.64350715 263.51777005 -34.08808651 263.55369423 -40.53341103 263.56926346 C-42.99387883 263.58036038 -45.45432213 263.60203 -47.91460228 263.63438034 C-51.35790829 263.67786089 -54.79938411 263.68393724 -58.24291992 263.68115234 C-59.26287552 263.702724 -60.28283112 263.72429565 -61.33369446 263.746521 C-62.27453888 263.73827301 -63.2153833 263.73002502 -64.18473816 263.7215271 C-64.99868136 263.72705786 -65.81262457 263.73258862 -66.65123272 263.73828697 C-69 263 -69 263 -74 257 C-40.34 257 -6.68 257 28 257 C20.63526376 247.95420537 20.63526376 247.95420537 12.875 239.3125 C11.45211323 237.79850195 10.03287457 236.28288576 8.6326676 234.74786377 C7.52141908 233.55820886 6.37723584 232.39867156 5.20613807 231.2678833 C1.03347508 227.0141871 -0.79915585 224.06939409 -0.90356916 218.0783987 C-0.88317927 217.22623807 -0.86278938 216.37407743 -0.84178162 215.49609375 C-0.84776259 214.57045907 -0.85374356 213.64482439 -0.85990578 212.69114017 C-0.87138861 209.60561232 -0.83302024 206.5227801 -0.79467773 203.4375 C-0.7927022 201.21960005 -0.79381353 199.00169551 -0.79777527 196.78379822 C-0.79978172 190.77373047 -0.75865897 184.76464288 -0.70975757 178.7548027 C-0.66596538 172.47013076 -0.66188381 166.18543574 -0.65357971 159.90063477 C-0.6343027 149.35562524 -0.59059507 138.81093649 -0.52807617 128.26611328 C-0.46376542 117.40773302 -0.41424487 106.54945038 -0.38452148 95.69091797 C-0.38268242 95.02094575 -0.38084336 94.35097353 -0.37894856 93.66069913 C-0.36981291 90.29944878 -0.36096705 86.93819775 -0.35226524 83.57694626 C-0.27911925 55.7177143 -0.15601324 27.85888243 0 0 Z " fill="#FFFFFF" transform="translate(698,291)"/>
<path d="M0 0 C1.32 1.32 2.64 2.64 4 4 C2.56596391 7.56755931 0.99313708 8.86148942 -2.26902771 10.815979 C-10.03144623 16.24011488 -16.26282911 22.23778633 -18.12611771 31.73930359 C-20.07070793 45.22757819 -19.5762352 59.06756172 -19.38752675 72.65498257 C-19.32024659 78.69508975 -19.35081613 84.73485466 -19.36680603 90.77520752 C-19.3784556 100.9100086 -19.31391876 111.04212055 -19.20239258 121.17626953 C-19.07466511 132.86049421 -19.06433861 144.54032611 -19.11750799 156.22502875 C-19.1664633 167.51352658 -19.13580706 178.8004555 -19.06811333 190.08881378 C-19.04057648 194.8718717 -19.03977284 199.65379936 -19.06096077 204.43688202 C-19.08207214 210.07614458 -19.03279755 215.71070094 -18.93108177 221.34904289 C-18.90478157 223.40666481 -18.9016677 225.46474705 -18.92458344 227.52240944 C-19.03369231 238.77370857 -18.22841692 246.29062227 -10.11619568 254.57843018 C-8.30866476 256.29888967 -6.47273377 257.96416603 -4.58548343 259.59654474 C-2.62182537 261.33475668 -0.92515716 263.2353702 0.75 265.25 C4.28007411 269.36392861 7.97429486 273.32199857 11.66796875 277.2890625 C14.05006883 280.05820396 16.00052215 282.94773585 18 286 C3.35313182 286.14021028 -11.29364745 286.24599028 -25.94105053 286.31087303 C-32.74226004 286.34180122 -39.5430524 286.38396054 -46.34399414 286.45263672 C-52.90566895 286.51886514 -59.4670239 286.55369344 -66.02904701 286.56926346 C-68.53417094 286.58036107 -71.03927079 286.60203201 -73.54421043 286.63438034 C-77.0497731 286.67785546 -80.55353788 286.68393743 -84.05932617 286.68115234 C-85.09798325 286.702724 -86.13664032 286.72429565 -87.20677185 286.746521 C-88.16444458 286.73827301 -89.12211731 286.73002502 -90.10881042 286.7215271 C-90.93750232 286.72705786 -91.76619421 286.73258862 -92.61999798 286.73828697 C-95 286 -95 286 -100 280 C-49.015 279.505 -49.015 279.505 3 279 C-1.95 273.72 -6.9 268.44 -12 263 C-14.31 260.36 -16.62 257.72 -19 255 C-20.11699532 253.87025662 -21.23399063 252.74051325 -22.38483429 251.57653522 C-25.79596168 247.55493819 -25.87439837 243.89819874 -25.84265137 238.7754364 C-25.8604781 237.86743988 -25.87830483 236.95944337 -25.89667177 236.0239318 C-25.94855826 232.99177028 -25.95782083 229.96103639 -25.96679688 226.9284668 C-25.99458446 224.74974053 -26.02473495 222.57104331 -26.05706787 220.39237976 C-26.13567486 214.47856193 -26.17445652 208.56515239 -26.20113182 202.65089393 C-26.21874691 198.94986835 -26.24338189 195.24895304 -26.27015686 191.54798317 C-26.35218885 179.95088604 -26.41018923 168.35404252 -26.43336821 156.75667542 C-26.43602076 155.43697009 -26.43867332 154.11726476 -26.44140625 152.75756836 C-26.44273483 152.09635075 -26.44406341 151.43513314 -26.44543225 150.75387863 C-26.47053653 139.40038424 -26.59137579 128.05007717 -26.73937178 116.69749707 C-26.86947276 106.35568356 -26.92961496 96.01490492 -26.93761492 85.67228252 C-26.9438787 79.50443069 -26.97875546 73.34005548 -27.08653259 67.17307091 C-27.78794734 24.6596809 -27.78794734 24.6596809 -18.76435089 14.43999195 C-15.76349897 11.71832081 -12.71385018 9.43872648 -9.2334137 7.36870766 C-5.81704938 5.27504986 -2.98067314 2.66760146 0 0 Z " fill="#FFFFFF" transform="translate(920,268)"/>
<path d="M0 0 C12.9708973 4.21317467 23.13514071 19.34784846 29.21484375 30.77954102 C51.65754019 74.85509131 49.23034452 132.2892361 34.75 178.5 C24.41733517 208.29357344 5.67228888 234.13758276 -23.05224609 248.22460938 C-51.37656166 261.75859353 -82.12958248 264.17426161 -113.046875 264.09765625 C-115.27174854 264.09578821 -117.49662249 264.09436613 -119.72149658 264.09336853 C-125.54106813 264.08957375 -131.36061421 264.07976982 -137.18017578 264.06866455 C-143.13313452 264.05838468 -149.08609742 264.0538569 -155.0390625 264.04882812 C-166.69271944 264.03814448 -178.34635759 264.02110508 -190 264 C-190.99 262.02 -191.98 260.04 -193 258 C-191.87787613 257.99191315 -190.75575226 257.98382629 -189.59962463 257.97549438 C-178.90868398 257.89725529 -168.21785859 257.80933692 -157.52707005 257.71247292 C-152.03377759 257.66299762 -146.5405 257.61667323 -141.04711914 257.578125 C-100.7303524 257.90789356 -100.7303524 257.90789356 -60.875 252.6875 C-59.83988281 252.46803711 -58.80476563 252.24857422 -57.73828125 252.02246094 C-28.50049098 245.62783785 -2.08859187 230.3857818 14.48193359 204.91918945 C25.35973385 187.4400098 31.55771879 168.20070724 35 148 C35.18022705 146.96367432 35.3604541 145.92734863 35.54614258 144.85961914 C37.1665777 134.37483316 37.33909608 124.01477704 37.31567383 113.42358398 C37.31253056 110.46625258 37.33600241 107.50994185 37.36132812 104.55273438 C37.41846189 87.63199798 36.29496817 70.38274399 31.25 54.125 C30.99323486 53.26970703 30.73646973 52.41441406 30.47192383 51.53320312 C25.01439735 33.92467859 16.89841663 19.69397036 4.06640625 6.33984375 C2.23199901 4.26269831 1.07058397 2.53313037 0 0 Z " fill="#FFFFFF" transform="translate(1429,290)"/>
<path d="M0 0 C11.95466606 9.02699274 18.50823676 23.421756 20.71875 38.06640625 C22.52462102 56.90264428 19.04985758 75.03621545 7.34375 90.21484375 C-6.18402694 106.29035202 -21.95164788 115.51128334 -41 124 C-32.91694979 149.58152156 -21.43317814 172.03245381 -6 194 C-5.51273438 194.69367676 -5.02546875 195.38735352 -4.5234375 196.10205078 C2.86866323 206.5157221 11.09585845 215.86097054 20 225 C20.91007812 225.95003906 21.82015625 226.90007812 22.7578125 227.87890625 C31.61797299 236.97515252 41.62246445 244.25869679 51.93164062 251.60864258 C53.06375977 252.41724731 53.06375977 252.41724731 54.21875 253.2421875 C54.89873047 253.7254248 55.57871094 254.20866211 56.27929688 254.70654297 C58 256 58 256 60 258 C55.43531971 259.77054266 50.85731974 261.39035687 46.19140625 262.875 C19.64151425 271.34554576 -8.36551664 281.98454489 -31.26147461 298.21923828 C-33 299 -33 299 -35.09594727 298.81591797 C-37 298 -37 298 -39 295 C-12.37342466 278.11323312 15.55474954 264.55681729 46 256 C45.30519531 255.44957031 44.61039063 254.89914062 43.89453125 254.33203125 C39.02544842 250.40916695 34.27636062 246.34425607 29.51708984 242.28955078 C28.2930692 241.24911353 27.06342111 240.21529876 25.83203125 239.18359375 C15.56755867 230.45113201 6.18787413 220.69729265 -2 210 C-2.41427246 209.46213867 -2.82854492 208.92427734 -3.25537109 208.37011719 C-20.26812025 186.16095261 -33.58011672 161.77765551 -44.8125 136.1875 C-45.22709473 135.24551758 -45.64168945 134.30353516 -46.06884766 133.33300781 C-47.96499553 128.89320725 -49.5106743 124.85314832 -50 120 C-48.56333984 119.41605469 -48.56333984 119.41605469 -47.09765625 118.8203125 C-22.0958755 108.42142604 0.02076162 94.42876909 10.80859375 68.51953125 C16.93536933 50.42043356 15.30389394 31.63765429 6.95507812 14.58325195 C5.92737744 12.54155636 4.87240418 10.51709216 3.8046875 8.49609375 C2.35683359 5.69126854 1.09961853 2.95309925 0 0 Z " fill="#FFFFFF" transform="translate(1168,286)"/>
<path d="M0 0 C9.82480411 3.83654541 14.99182256 14.15133453 19.20605469 23.16650391 C27.48356514 42.28215689 26.25581016 68.0291278 18.74316406 87.11889648 C9.75245562 108.54135786 -7.00969197 122.96734559 -28.2421875 131.68359375 C-42.98770746 136.84912413 -57.47519406 138.15054572 -73.00708008 138.17700195 C-74.62898908 138.18327508 -76.25089667 138.18992262 -77.87280273 138.19691467 C-83.17170228 138.21783257 -88.47060176 138.22829612 -93.76953125 138.23828125 C-95.59709882 138.24233149 -97.42466624 138.24644849 -99.25223351 138.25063133 C-107.82882305 138.26964517 -116.40540413 138.28389182 -124.98201066 138.2922433 C-134.88109947 138.30204314 -144.77996632 138.32844971 -154.67897683 138.36874419 C-162.33687305 138.39884855 -169.99470533 138.41370621 -177.6526596 138.41702431 C-182.2252085 138.41937856 -186.7975192 138.42838963 -191.37000465 138.45348549 C-195.6637152 138.47667615 -199.95702901 138.48103616 -204.25078583 138.47072411 C-205.82823948 138.47022666 -207.40571213 138.47660833 -208.98310661 138.49028015 C-211.13223017 138.50787023 -213.27990905 138.50095926 -215.42903137 138.48774719 C-216.63264218 138.49013555 -217.83625299 138.4925239 -219.07633686 138.49498463 C-222 138 -222 138 -223.91068554 136.0945158 C-225 134 -225 134 -225 132 C-224.25513871 131.99668985 -223.51027742 131.99337971 -222.74284458 131.98996925 C-204.49974681 131.90824612 -186.2567289 131.81599953 -168.01374149 131.71247292 C-159.19106283 131.66265117 -150.36839208 131.61620881 -141.5456543 131.578125 C-133.84309622 131.54486749 -126.14060563 131.50485915 -118.43812269 131.45720994 C-114.37123366 131.43227473 -110.30438744 131.4104026 -106.23744392 131.39665604 C-54.77359629 132.45400089 -54.77359629 132.45400089 -9 112 C-8.21882812 111.38253906 -7.43765625 110.76507812 -6.6328125 110.12890625 C6.09737675 99.47755262 14.46893727 83.56741806 16 67 C17.45505624 43.45095978 14.49136386 23.04411657 -0.96875 4.41796875 C-2 3 -2 3 -2 1 C-1.34 0.67 -0.68 0.34 0 0 Z " fill="#FFFFFF" transform="translate(506,416)"/>
<path d="M0 0 C2.47345739 0.95746738 3.73067966 1.45108862 4.921875 3.87890625 C5.02928056 6.79496718 4.08222235 7.68084083 2.25 9.9375 C-10.65798205 27.61582325 -18.08647196 48.77148247 -26 69 C-28.86724686 68.42655063 -29.8614515 68.1385485 -32 66 C-31.63495551 59.25676612 -28.45500795 52.63719254 -25.875 46.5 C-25.47684082 45.54311279 -25.07868164 44.58622559 -24.66845703 43.6003418 C-18.10033611 27.9538324 -11.56084357 12.68873075 0 0 Z " fill="#FFFFFF" transform="translate(806,270)"/>
<path d="M0 0 C2 1 2 1 2 1 Z " fill="#FFFFFF" transform="translate(1377,307)"/>
<path d="" fill="#FFFFFF" transform="translate(0,0)"/>
</svg>
